:FULLY-SPECIFIED
:FORCE-ALL-JOINTS-BE-3DOF
:DEGREES
1325
root -1.55588 14.9072 7.33942 -5.62892 24.2472 2.31506
lfemur -0.70404 4.90719 -17.0361
ltibia 51.9522 -0 0
lfoot -25.7528 26.2857 0.148297
ltoes -14.7216 0 0
rfemur -48.6419 -8.28202 5.04657
rtibia 46.9853 -0 0
rfoot 15.1666 6.62817 -0.0318199
rtoes 2.37756 -0 0
lowerback 12.5109 0.808286 -10.1575
upperback -2.02442 -0.467534 0.629335
thorax -9.19395 0.336507 6.53677
lowerneck -4.09887 -9.10933 -10.8206
upperneck 14.1352 -12.5184 7.83688
head 6.18395 -6.18775 3.37809
lclavicle 0 0 0
lhumerus -38.0825 -42.0116 113.659
lradius 110.425 -0 0
lwrist 42.5213 0 0
lhand -13.3346 46.6959 -0.0300308
lfingers 0 0 0
lthumb 12.7703 76.2802 -0.0301412
rclavicle 0 0 0
rhumerus 39.7062 18.4559 -50.75
rradius 97.7981 -0 0
rwrist -16.9646 0 0
rhand -19.0708 -30.1474 0.201274
rfingers 0 0 0
rthumb 7.23079 -59.4624 0.193503
1326
root -1.57366 14.8811 7.52832 -5.24323 24.5269 2.44917
lfemur 0.0814961 4.65399 -16.7452
ltibia 51.1112 -0 0
lfoot -25.5093 26.6344 0.157832
ltoes -14.9356 0 0
rfemur -49.0129 -8.73216 5.12398
rtibia 47.7993 -0 0
rfoot 14.3376 6.65015 -0.0338714
rtoes 2.02813 -0 0
lowerback 12.4553 0.861191 -10.1766
upperback -2.07061 -0.401652 0.561415
thorax -9.22553 0.370571 6.45907
lowerneck -3.87327 -9.23571 -10.8469
upperneck 13.7845 -12.7036 7.93184
head 6.06407 -6.28049 3.41369
lclavicle 0 0 0
lhumerus -39.7929 -40.7948 113.597
lradius 110.054 -0 0
lwrist 43.1979 0 0
lhand -13.2292 46.5328 -0.0319602
lfingers 0 0 0
lthumb 12.8719 76.1104 -0.0320777
rclavicle 0 0 0
rhumerus 41.0478 17.2871 -49.3233
rradius 97.0882 -0 0
rwrist -14.9032 0 0
rhand -20.1612 -30.2532 0.214287
rfingers 0 0 0
rthumb 6.1787 -59.5678 0.206008
1327
root -1.59133 14.8546 7.71394 -4.84761 24.8118 2.5886
lfemur 0.882286 4.39126 -16.4518
ltibia 50.2522 -0 0
lfoot -25.2606 26.9906 0.166042
ltoes -15.1543 0 0
rfemur -49.393 -9.19145 5.20621
rtibia 48.6308 -0 0
rfoot 13.4907 6.67263 -0.0356385
rtoes 1.67118 -0 0
lowerback 12.3984 0.915212 -10.1961
upperback -2.11787 -0.33441 0.491982
thorax -9.25784 0.405324 6.37969
lowerneck -3.64268 -9.36469 -10.8743
upperneck 13.4256 -12.8921 8.0301
head 5.94154 -6.37514 3.45027
lclavicle 0 0 0
lhumerus -41.5105 -39.5539 113.486
lradius 109.675 -0 0
lwrist 43.8889 0 0
lhand -13.1216 46.3662 -0.0336214
lfingers 0 0 0
lthumb 12.9756 75.9369 -0.033745
rclavicle 0 0 0
rhumerus 42.378 16.0612 -47.9049
rradius 96.3631 -0 0
rwrist -12.7976 0 0
rhand -21.2751 -30.3615 0.225499
rfingers 0 0 0
rthumb 5.10398 -59.6757 0.216782
1328
root -1.60887 14.8278 7.89603 -4.44354 25.1006 2.73297
lfemur 1.69502 4.11991 -16.1573
ltibia 49.3785 -0 0
lfoot -25.0075 27.3529 0.172806
ltoes -15.3767 0 0
rfemur -49.7807 -9.65798 5.29311
rtibia 49.4764 -0 0
rfoot 12.6294 6.69552 -0.0370945
rtoes 1.30817 -0 0
lowerback 12.3406 0.970133 -10.2161
upperback -2.16601 -0.266084 0.421311
thorax -9.29075 0.440621 6.29894
lowerneck -3.40801 -9.49576 -10.9027
upperneck 13.0601 -13.0832 8.13136
head 5.81683 -6.47133 3.48769
lclavicle 0 0 0
lhumerus -43.2299 -38.2949 113.326
lradius 109.29 -0 0
lwrist 44.5917 0 0
lhand -13.0121 46.1967 -0.0349897
lfingers 0 0 0
lthumb 13.0812 75.7605 -0.0351184
rclavicle 0 0 0
rhumerus 43.6901 14.7829 -46.5015
rradius 95.6257 -0 0
rwrist -10.6561 0 0
rhand -22.408 -30.4719 0.23474
rfingers 0 0 0
rthumb 4.01096 -59.7856 0.225661
1329
root -1.62623 14.8008 8.07436 -4.03252 25.3922 2.88182
lfemur 2.51642 3.84088 -15.8631
ltibia 48.4937 -0 0
lfoot -24.7512 27.7198 0.178025
ltoes -15.6019 0 0
rfemur -50.1747 -10.1299 5.38452
rtibia 50.3329 -0 0
rfoot 11.7572 6.71873 -0.0382183
rtoes 0.940515 -0 0
lowerback 12.282 1.02573 -10.2363
upperback -2.21486 -0.196946 0.34968
thorax -9.32412 0.476322 6.21713
lowerneck -3.17018 -9.62838 -10.932
upperneck 12.6893 -13.2761 8.23526
head 5.69044 -6.56866 3.52581
lclavicle 0 0 0
lhumerus -44.9463 -37.0243 113.119
lradius 108.9 -0 0
lwrist 45.3035 0 0
lhand -12.9012 46.0251 -0.0360455
lfingers 0 0 0
lthumb 13.188 75.5818 -0.0361781
rclavicle 0 0 0
rhumerus 44.9781 13.4576 -45.1195
rradius 94.8788 -0 0
rwrist -8.4873 0 0
rhand -23.5553 -30.5838 0.241874
rfingers 0 0 0
rthumb 2.90397 -59.897 0.232516
1330
root -1.64337 14.7737 8.24869 -3.61606 25.6853 3.03468
lfemur 3.34323 3.55519 -15.5705
ltibia 47.6012 -0 0
lfoot -24.4927 28.0899 0.181626
ltoes -15.8291 0 0
rfemur -50.5736 -10.6052 5.4802
rtibia 51.1967 -0 0
rfoot 10.8773 6.74214 -0.0389939
rtoes 0.569669 -0 0
lowerback 12.2228 1.0818 -10.2568
upperback -2.26422 -0.12727 0.277366
thorax -9.35785 0.512285 6.13459
lowerneck -2.93013 -9.76203 -10.9621
upperneck 12.3145 -13.4701 8.34145
head 5.56286 -6.66676 3.56448
lclavicle 0 0 0
lhumerus -46.6553 -35.7481 112.867
lradius 108.506 -0 0
lwrist 46.0215 0 0
lhand -12.7894 45.852 -0.0367741
lfingers 0 0 0
lthumb 13.2958 75.4015 -0.0369094
rclavicle 0 0 0
rhumerus 46.237 12.091 -43.764
rradius 94.1255 -0 0
rwrist -6.29964 0 0
rhand -24.7127 -30.6968 0.246798
rfingers 0 0 0
rthumb 1.78735 -60.0096 0.237247
1331
root -1.66026 14.7465 8.41876 -3.19571 25.9788 3.19102
lfemur 4.17222 3.26395 -15.2808
ltibia 46.7045 -0 0
lfoot -24.2329 28.4618 0.183563
ltoes -16.0574 0 0
rfemur -50.9757 -11.0821 5.57988
rtibia 52.0647 -0 0
rfoot 9.99328 6.76568 -0.0394109
rtoes 0.197065 -0 0
lowerback 12.1634 1.13811 -10.2775
upperback -2.3139 -0.0573255 0.20465
thorax -9.39178 0.548369 6.05164
lowerneck -2.68876 -9.89619 -10.993
upperneck 11.9373 -13.6642 8.44955
head 5.43458 -6.76523 3.60357
lclavicle 0 0 0
lhumerus -48.3524 -34.4725 112.571
lradius 108.11 -0 0
lwrist 46.7429 0 0
lhand -12.677 45.6781 -0.0371658
lfingers 0 0 0
lthumb 13.4041 75.2204 -0.0373025
rclavicle 0 0 0
rhumerus 47.4622 10.6895 -42.4398
rradius 93.3686 -0 0
rwrist -4.10161 0 0
rhand -25.8755 -30.8104 0.249446
rfingers 0 0 0
rthumb 0.665432 -60.1227 0.239791
1332
root -1.67686 14.7195 8.58433 -2.77306 26.2715 3.3503
lfemur 5.00021 2.96829 -14.9953
ltibia 45.807 -0 0
lfoot -23.9729 28.8341 0.183812
ltoes -16.2859 0 0
rfemur -51.3797 -11.5588 5.68323
rtibia 52.9334 -0 0
rfoot 9.1085 6.78924 -0.0394646
rtoes -0.175858 0 0
lowerback 12.1039 1.19444 -10.2982
upperback -2.36371 0.0126153 0.131811
thorax -9.42579 0.584435 5.9686
lowerneck -2.44702 -10.0303 -11.0245
upperneck 11.5591 -13.8579 8.55914
head 5.3061 -6.8637 3.64292
lclavicle 0 0 0
lhumerus -50.0339 -33.2035 112.233
lradius 107.714 -0 0
lwrist 47.4649 0 0
lhand -12.5645 45.504 -0.0372162
lfingers 0 0 0
lthumb 13.5126 75.0391 -0.0373531
rclavicle 0 0 0
rhumerus 48.6499 9.25969 -41.1509
rradius 92.611 -0 0
rwrist -1.9017 0 0
rhand -27.0393 -30.9241 0.249787
rfingers 0 0 0
rthumb -0.457454 -60.236 0.240119
1333
root -1.69313 14.6926 8.74516 -2.3497 26.5623 3.51189
lfemur 5.82403 2.66946 -14.7149
ltibia 44.9122 -0 0
lfoot -23.7136 29.2052 0.182379
ltoes -16.5136 0 0
rfemur -51.7841 -12.0333 5.78987
rtibia 53.7995 -0 0
rfoot 8.22638 6.81273 -0.039156
rtoes -0.547663 0 0
lowerback 12.0445 1.25059 -10.3189
upperback -2.41346 0.0822833 0.0591294
thorax -9.45976 0.620344 5.88578
lowerneck -2.20582 -10.1639 -11.0565
upperneck 11.1814 -14.0502 8.6698
head 5.17791 -6.96178 3.68239
lclavicle 0 0 0
lhumerus -51.6955 -31.947 111.858
lradius 107.32 -0 0
lwrist 48.1847 0 0
lhand -12.4524 45.3304 -0.0369263
lfingers 0 0 0
lthumb 13.6206 74.8584 -0.0370621
rclavicle 0 0 0
rhumerus 49.797 7.80872 -39.9007
rradius 91.8558 -0 0
rwrist 0.291612 0 0
rhand -28.1996 -31.0375 0.247827
rfingers 0 0 0
rthumb -1.57697 -60.3489 0.238236
1334
root -1.70903 14.666 8.90101 -1.92728 26.85 3.67516
lfemur 6.64053 2.36873 -14.4408
ltibia 44.0235 -0 0
lfoot -23.4562 29.5737 0.179294
ltoes -16.7398 0 0
rfemur -52.1873 -12.5037 5.89936
rtibia 54.6597 -0 0
rfoot 7.35032 6.83605 -0.0384916
rtoes -0.916911 0 0
lowerback 11.9856 1.30632 -10.3395
upperback -2.46296 0.15141 -0.0131122
thorax -9.49354 0.655957 5.80351
lowerneck -1.96611 -10.2965 -11.0888
upperneck 10.8055 -14.2405 8.78109
head 5.05051 -7.05911 3.72181
lclavicle 0 0 0
lhumerus -53.3335 -30.7087 111.449
lradius 106.928 -0 0
lwrist 48.8996 0 0
lhand -12.341 45.1581 -0.0363022
lfingers 0 0 0
lthumb 13.728 74.6789 -0.0364358
rclavicle 0 0 0
rhumerus 50.9009 6.34388 -38.6922
rradius 91.1057 -0 0
rwrist 2.46985 0 0
rhand -29.352 -31.1501 0.243609
rfingers 0 0 0
rthumb -2.68878 -60.461 0.234182
1335
root -1.72453 14.6397 9.05163 -1.50745 27.1335 3.83942
lfemur 7.44661 2.06745 -14.174
ltibia 43.1445 -0 0
lfoot -23.2015 29.9383 0.174613
ltoes -16.9636 0 0
rfemur -52.5878 -12.9684 6.0112
rtibia 55.5105 -0 0
rfoot 6.48374 6.85911 -0.0374836
rtoes -1.28216 0 0
lowerback 11.9272 1.36144 -10.36
upperback -2.512 0.219727 -0.0846314
thorax -9.52701 0.691137 5.72211
lowerneck -1.72882 -10.4275 -11.1214
upperneck 10.433 -14.4281 8.89253
head 4.92439 -7.15529 3.76102
lclavicle 0 0 0
lhumerus -54.9437 -29.4941 111.009
lradius 106.54 -0 0
lwrist 49.6067 0 0
lhand -12.2309 44.9876 -0.0353553
lfingers 0 0 0
lthumb 13.8342 74.5014 -0.0354853
rclavicle 0 0 0
rhumerus 51.9593 4.87277 -37.5279
rradius 90.3637 -0 0
rwrist 4.62451 0 0
rhand -30.4918 -31.2613 0.23721
rfingers 0 0 0
rthumb -3.78856 -60.5717 0.228034
1336
root -1.73959 14.6139 9.19678 -1.09194 27.4117 4.00393
lfemur 8.23919 1.76702 -13.9153
ltibia 42.2785 -0 0
lfoot -22.9507 30.2974 0.168418
ltoes -17.184 0 0
rfemur -52.984 -13.4253 6.12485
rtibia 56.3487 -0 0
rfoot 5.63004 6.8818 -0.0361498
rtoes -1.64199 0 0
lowerback 11.8697 1.41571 -10.3802
upperback -2.5604 0.286968 -0.155144
thorax -9.56003 0.725748 5.6419
lowerneck -1.49489 -10.5564 -11.154
upperneck 10.0654 -14.6121 9.00364
head 4.80006 -7.24996 3.79987
lclavicle 0 0 0
lhumerus -56.522 -28.3084 110.543
lradius 106.158 -0 0
lwrist 50.3034 0 0
lhand -12.1223 44.8196 -0.034102
lfingers 0 0 0
lthumb 13.9387 74.3265 -0.0342274
rclavicle 0 0 0
rhumerus 52.9706 3.40316 -36.4098
rradius 89.6327 -0 0
rwrist 6.74714 0 0
rhand -31.6147 -31.3707 0.228744
rfingers 0 0 0
rthumb -4.87196 -60.6807 0.2199
1337
root -1.75416 14.5887 9.33621 -0.682455 27.6836 4.16791
lfemur 9.01518 1.46888 -13.6657
ltibia 41.4291 -0 0
lfoot -22.7047 30.6496 0.160814
ltoes -17.4003 0 0
rfemur -53.3743 -13.8728 6.23971
rtibia 57.1709 -0 0
rfoot 4.79265 6.90404 -0.0345131
rtoes -1.99494 0 0
lowerback 11.8133 1.46893 -10.4001
upperback -2.60796 0.352867 -0.224367
thorax -9.59246 0.759652 5.5632
lowerneck -1.26525 -10.6827 -11.1866
upperneck 9.70411 -14.792 9.1139
head 4.67801 -7.34275 3.83819
lclavicle 0 0 0
lhumerus -58.0641 -27.1568 110.055
lradius 105.783 -0 0
lwrist 50.9867 0 0
lhand -12.0159 44.6549 -0.0325635
lfingers 0 0 0
lthumb 14.0413 74.1549 -0.0326833
rclavicle 0 0 0
rhumerus 53.9333 1.94298 -35.3398
rradius 88.9158 -0 0
rwrist 8.82923 0 0
rhand -32.7162 -31.4779 0.218358
rfingers 0 0 0
rthumb -5.93466 -60.7875 0.20992
1338
root -1.76822 14.5641 9.46969 -0.280776 27.948 4.33054
lfemur 9.77157 1.17452 -13.426
ltibia 40.5996 -0 0
lfoot -22.4646 30.9935 0.15193
ltoes -17.6114 0 0
rfemur -53.757 -14.309 6.35511
rtibia 57.9738 -0 0
rfoot 3.97497 6.92573 -0.0326015
rtoes -2.33958 0 0
lowerback 11.7582 1.52087 -10.4195
upperback -2.65447 0.41716 -0.292013
thorax -9.62418 0.792716 5.48634
lowerneck -1.04086 -10.8059 -11.2188
upperneck 9.35072 -14.967 9.22278
head 4.55876 -7.43326 3.8758
lclavicle 0 0 0
lhumerus -59.5656 -26.0438 109.551
lradius 105.418 -0 0
lwrist 51.6539 0 0
lhand -11.912 44.494 -0.0307659
lfingers 0 0 0
lthumb 14.1415 73.9874 -0.0308791
rclavicle 0 0 0
rhumerus 54.8464 0.500292 -34.3194
rradius 88.2156 -0 0
rwrist 10.8623 0 0
rhand -33.7917 -31.5823 0.206231
rfingers 0 0 0
rthumb -6.97233 -60.8915 0.198267
